<svg width="170" height="79" viewBox="0 0 170 79" fill="none" xmlns="http://www.w3.org/2000/svg">
<path d="M71.3378 1.56H98.2909" stroke="#2C2E35" stroke-width="3.12"/>
<path d="M85.3035 2.29153V74.7715" stroke="#2C2E35" stroke-width="3.12"/>
<path d="M79.8498 32.4423L90.4944 38.6754" stroke="#2C2E35" stroke-width="3.12"/>
<path d="M107.564 2.1521L134.243 5.94867" stroke="#2C2E35" stroke-width="3.12"/>
<path d="M121.287 4.8447L90.4212 75.2721" stroke="#2C2E35" stroke-width="3.12"/>
<path d="M103.018 33.0048L110.282 42.9773" stroke="#2C2E35" stroke-width="3.12"/>
<path d="M143.347 7.84108L169.221 15.3542" stroke="#2C2E35" stroke-width="3.12"/>
<path d="M156.552 12.4401L94.6384 77.3796" stroke="#2C2E35" stroke-width="3.12"/>
<path d="M125.749 37.0846L129.132 48.9497" stroke="#2C2E35" stroke-width="3.12"/>
<path d="M35.3881 6.07666L62.0669 2.28238" stroke="#2C2E35" stroke-width="3.12"/>
<path d="M49.3172 4.82858L80.1766 75.272" stroke="#2C2E35" stroke-width="3.12"/>
<path d="M56.6932 35.8502L68.9424 37.3039" stroke="#2C2E35" stroke-width="3.12"/>
<path d="M0.434906 15.6104L26.316 8.09724" stroke="#2C2E35" stroke-width="3.12"/>
<path d="M14.0533 12.4102L75.6647 76.4788" stroke="#2C2E35" stroke-width="3.12"/>
<path d="M36.3755 44.8951L48.3823 42.0493" stroke="#2C2E35" stroke-width="3.12"/>
</svg>
