<svg width="64" height="85" viewBox="0 0 64 85" fill="none" xmlns="http://www.w3.org/2000/svg">
<path d="M32.5277 9.41017V81.7439" stroke="#2C2E35" stroke-width="3.12"/>
<path d="M46.5459 0.00225628C46.5459 4.7474 40.2831 8.60111 32.5711 8.60797C24.8431 8.60111 18.5917 4.75426 18.5848 0.00225628" stroke="#2C2E35" stroke-width="3.12"/>
<path d="M29.1677 8.83874C16.2694 17.6799 17.2363 71.8536 28.194 81.8353" stroke="#2C2E35" stroke-width="3.12"/>
<path d="M25.9128 7.9793C1.71395 16.5347 -0.217482 65.3027 23.9814 83.2616" stroke="#2C2E35" stroke-width="3.12"/>
<path d="M35.0237 8.83874C47.9311 17.6799 46.9574 71.8536 35.9906 81.8353" stroke="#2C2E35" stroke-width="3.12"/>
<path d="M38.2808 7.97934C62.4705 16.5416 64.4088 65.3028 40.2122 83.2685" stroke="#2C2E35" stroke-width="3.12"/>
<path d="M0.747101 39.3485L11.7162 45.3325" stroke="#2C2E35" stroke-width="3.12"/>
<path d="M14.0042 39.3485L24.9711 45.3325" stroke="#2C2E35" stroke-width="3.12"/>
<path d="M26.4453 39.3485L37.4213 45.3325" stroke="#2C2E35" stroke-width="3.12"/>
<path d="M38.7334 39.3485L49.7025 45.3325" stroke="#2C2E35" stroke-width="3.12"/>
<path d="M51.9928 39.3438L62.962 45.3347" stroke="#2C2E35" stroke-width="3.12"/>
</svg>
